<svg width="503" height="508" viewBox="0 0 503 508" fill="none" xmlns="http://www.w3.org/2000/svg">
<rect width="503" height="508" fill="white"/>
<path d="M352.97 163.284H150.03L251.5 251.124L352.97 163.284Z" fill="#41A3FA"/>
<path d="M251.5 272.148C249.356 272.148 247.281 271.373 245.654 269.96L134.732 173.939V344.72H368.268V173.939L257.346 269.96C255.719 271.373 253.645 272.148 251.5 272.148Z" fill="#41A3FA"/>
<path d="M251.5 0C112.601 0 0 113.721 0 254C0 394.279 112.601 508 251.5 508C390.399 508 503 394.279 503 254C502.842 113.787 390.333 0.159459 251.5 0ZM386.232 353.786C386.232 358.795 382.21 362.857 377.25 362.857H125.75C120.79 362.857 116.768 358.795 116.768 353.786V154.214C116.768 149.205 120.79 145.143 125.75 145.143H377.25C382.21 145.143 386.232 149.205 386.232 154.214V353.786Z" fill="#41A3FA"/>
</svg>
