<svg width="46" height="46" viewBox="0 0 46 46" fill="none" xmlns="http://www.w3.org/2000/svg">
<g clip-path="url(#clip0)">
<rect width="45.3" height="45.3" fill="#E5E5E5"/>
<path d="M31.7884 14.5605H13.5116L22.65 22.3935L31.7884 14.5605Z" fill="white"/>
<path d="M22.65 24.2683C22.4569 24.2683 22.27 24.1992 22.1235 24.0732L12.1339 15.5107V30.7398H33.1661V15.5107L23.1765 24.0732C23.03 24.1992 22.8432 24.2683 22.65 24.2683Z" fill="white"/>
<path d="M22.65 0C10.1408 0 0 10.1408 0 22.65C0 35.1592 10.1408 45.3 22.65 45.3C35.1592 45.3 45.3 35.1592 45.3 22.65C45.2858 10.1468 35.1532 0.0142194 22.65 0ZM34.7839 31.5482C34.7839 31.9949 34.4217 32.3571 33.975 32.3571H11.325C10.8783 32.3571 10.5161 31.9949 10.5161 31.5482V13.7518C10.5161 13.3051 10.8783 12.9429 11.325 12.9429H33.975C34.4217 12.9429 34.7839 13.3051 34.7839 13.7518V31.5482Z" fill="white"/>
</g>
<defs>
<clipPath id="clip0">
<rect width="45.3" height="45.3" fill="white"/>
</clipPath>
</defs>
</svg>
